<?xml version="1.0" encoding="UTF-8"?>
<svg xmlns="http://www.w3.org/2000/svg" xmlns:xlink="http://www.w3.org/1999/xlink" width="100px" height="85px" viewBox="0 0 99 85" version="1.1">
<g id="surface1">
<path style=" stroke:none;fill-rule:nonzero;fill:#FFFFFF;fill-opacity:1;" d="M 38.867188 9.292969 L 40.058594 8.527344 L 40.308594 7.886719 L 41.378906 6.796875 L 42.644531 6.582031 L 44.007812 7.515625 L 44.65625 7.023438 L 45.03125 7.433594 L 46.914062 7.566406 L 47.265625 6.726562 L 47.417969 5.261719 L 48.757812 4.296875 L 48.785156 3.605469 L 49.828125 2.890625 L 50.179688 2.027344 L 51.074219 2.011719 L 51.84375 1.320312 L 53.734375 3.117188 L 54.210938 2.535156 L 56.71875 2.507812 L 56.800781 2.902344 L 57.257812 3.421875 L 57.363281 4.144531 L 57.890625 4.863281 L 58.640625 4.933594 L 58.601562 4.480469 L 60.414062 3.425781 L 61.5625 3.597656 L 64.265625 4.941406 L 64.398438 5.460938 L 64.035156 5.683594 L 63.574219 7.675781 L 65.042969 9.246094 L 67.089844 7.453125 L 67.929688 7.609375 L 68.046875 6.9375 L 68.933594 6.394531 L 69.746094 6.371094 L 70.929688 6.777344 L 71.695312 6.132812 L 72.359375 6.613281 L 74.136719 7.117188 L 74.230469 7.769531 L 75.363281 8.300781 L 75.359375 8.855469 L 75.828125 9.382812 L 76.488281 9.363281 L 76.882812 10.441406 L 77.25 10.523438 L 77.683594 9.957031 L 78.097656 9.917969 L 78.53125 10.425781 L 78.449219 11.859375 L 78.539062 12.269531 L 78.332031 12.929688 L 78.742188 13.414062 L 78.730469 13.871094 L 77.558594 14.882812 L 77.550781 15.664062 L 78.429688 16.226562 L 78.472656 17.035156 L 79.574219 18.042969 L 79.367188 18.453125 L 79.753906 19.988281 L 79.027344 19.996094 L 79.085938 20.4375 L 78.769531 21.242188 L 78.109375 21.570312 L 77.964844 22.375 L 77.527344 23.875 L 79.933594 25.457031 L 79.941406 26.234375 L 80.636719 26.488281 L 81.535156 26.441406 L 81.492188 27.078125 L 80.765625 28.8125 L 81.003906 29.171875 L 81.738281 29.285156 L 82.347656 29.96875 L 82.417969 30.742188 L 83.074219 31.265625 L 83.261719 33.140625 L 85.625 34.816406 L 86.355469 34.792969 L 86.9375 35.242188 L 87.617188 35.269531 L 87.855469 35.996094 L 88.460938 35.996094 L 88.621094 36.921875 L 88.4375 38.996094 L 87.929688 40.121094 L 88.511719 40.199219 L 89.121094 40.625 L 91.410156 39.851562 L 92.3125 40.5 L 93.613281 40.824219 L 93.992188 41.316406 L 94.914062 41.28125 L 95.390625 41.972656 L 94.652344 42.511719 L 94.710938 43.925781 L 96.078125 44.640625 L 96.355469 44.984375 L 96.929688 45 L 97.210938 45.390625 L 97.835938 45.453125 L 97.992188 47.492188 L 96.734375 47.808594 L 96.691406 48.25 L 95.261719 48.242188 L 95.539062 49.105469 L 94.855469 50.445312 L 94.261719 50.445312 L 93.847656 51.292969 L 93.28125 51.367188 L 92.988281 51.84375 L 92.644531 51.84375 L 92.300781 52.34375 L 91.066406 51.941406 L 90.277344 52.265625 L 89.5625 51.816406 L 88.847656 51.816406 L 88.628906 50.617188 L 87.691406 50.59375 L 87.050781 50.265625 L 86.535156 50.667969 L 84.808594 50.691406 L 84.535156 52.03125 L 84.683594 52.523438 L 84.015625 52.789062 L 84.015625 53.28125 L 83.667969 53.800781 L 84.585938 54.539062 L 84.710938 55.53125 L 86.09375 56.472656 L 52.273438 64.386719 L 16.210938 56.472656 L 18.574219 37.429688 L 19.410156 37.285156 L 19.652344 36.320312 L 19.324219 35.320312 L 19.914062 34.667969 L 20.929688 34.617188 L 21.660156 34.992188 L 23.164062 34.019531 L 23.441406 32.945312 L 23.929688 33 L 25.1875 32.984375 L 25.917969 32.332031 L 26.828125 33.304688 L 26.507812 33.605469 L 26.332031 34.367188 L 26.746094 34.992188 L 27.863281 35.15625 L 28.242188 34.828125 L 28.867188 34.746094 L 28.863281 33.78125 L 29.207031 33.0625 L 28.574219 32.484375 L 28.359375 31.910156 L 26.917969 32.144531 L 26.914062 31.144531 L 27.574219 30.214844 L 27.671875 28.859375 L 28.125 28.390625 L 28.855469 28.058594 L 29.058594 26.960938 L 28.699219 26.070312 L 28.761719 24.160156 L 29.28125 23.730469 L 29.519531 22.699219 L 30.527344 21.460938 L 32.097656 21.382812 L 33.105469 20.8125 L 33.796875 19.644531 L 33.964844 18.683594 L 34.519531 18.289062 L 35.597656 18.605469 L 36.152344 18.175781 L 37.332031 18.699219 L 37.746094 18.34375 L 37.917969 17.171875 L 39.347656 16.210938 L 38.992188 15.535156 L 37.761719 15.25 L 37.058594 15.3125 L 36.003906 14.742188 L 36.453125 14.066406 L 36.519531 13.390625 L 36.96875 12.890625 L 36.929688 12.320312 L 37.101562 11.714844 L 37.691406 10.792969 L 37.617188 9.230469 L 38.066406 8.945312 Z M 38.867188 9.292969 "/>
<path style=" stroke:none;fill-rule:nonzero;fill:#FFFFFF;fill-opacity:1;" d="M 15.789062 56.472656 L 86.152344 56.472656 L 86.601562 56.625 L 86.558594 57.125 L 87.011719 57.710938 L 86.964844 58.777344 L 86.273438 59.269531 L 86.792969 60.160156 L 87.261719 61.078125 L 87.652344 61.488281 L 87.226562 61.621094 L 87.171875 62.429688 L 87.5625 62.835938 L 87.53125 64.09375 L 87.871094 64.601562 L 87.640625 65.136719 L 87.488281 65.542969 L 87.921875 66.195312 L 88.753906 66.425781 L 88.796875 67.476562 L 89.40625 68.078125 L 89.371094 68.980469 L 85.722656 69.035156 L 84.675781 69.4375 L 84.292969 70.242188 L 83.714844 70.175781 L 82.957031 69.683594 L 81.113281 69.84375 L 80.953125 70.453125 L 81.289062 70.9375 L 81.226562 71.296875 L 80.597656 71.304688 L 80.4375 71.734375 L 79.511719 72.335938 L 79.453125 73.0625 L 79.03125 73.085938 L 78.144531 74.464844 L 78.175781 75.144531 L 77.785156 75.394531 L 77.863281 76.199219 L 77.398438 76.5 L 77.230469 77.53125 L 76.894531 78.09375 L 76.949219 78.957031 L 77.378906 79.242188 L 77.460938 80.03125 L 77.828125 80.4375 L 77.574219 80.894531 L 78.238281 82.175781 L 77.761719 83.058594 L 77.484375 83.753906 L 76.664062 83.777344 L 76.363281 83.222656 L 75.765625 83.195312 L 75.042969 82.367188 L 75.085938 81.4375 L 74.214844 80.984375 L 73.59375 80.160156 L 71.359375 80.15625 L 70.8125 80.703125 L 70.386719 80.5 L 69.984375 80.921875 L 68.867188 80.917969 L 68.367188 80.0625 L 67.445312 80.410156 L 67.0625 80.933594 L 66.527344 80.957031 L 66.117188 81.730469 L 65.382812 81.832031 L 64.644531 82.332031 L 64.253906 81.90625 L 64.085938 81.28125 L 63.472656 80.78125 L 63.625 79.558594 L 63.039062 78.882812 L 62.746094 78.234375 L 62.035156 77.882812 L 61.394531 78.183594 L 60.90625 78.984375 L 59.894531 79.007812 L 59.28125 79.308594 L 58.59375 80.457031 L 58.402344 81.582031 L 57.964844 81.050781 L 57.605469 81.015625 L 56.945312 79.160156 L 55.644531 78.902344 L 54.316406 79.59375 L 54.105469 78.785156 L 53.246094 78.179688 L 53.058594 77.671875 L 52.425781 78.0625 L 51.765625 79.03125 L 50.265625 79.097656 L 49.261719 78.339844 L 48.601562 78.832031 L 48.539062 79.847656 L 47.90625 80.816406 L 47.402344 80.25 L 47.742188 78.761719 L 45.332031 78.148438 L 44.832031 78.582031 L 43.191406 78.492188 L 43.257812 77.453125 L 42.308594 77.464844 L 42.304688 75.828125 L 40.539062 75.5625 L 39.640625 76.023438 L 36.316406 74.660156 L 34.527344 74.71875 L 34.445312 73.878906 L 31.742188 73.914062 L 30.941406 72.925781 L 29.242188 72.878906 L 27.71875 72.40625 L 27.105469 72.53125 L 23.058594 72.34375 L 22.199219 71.730469 L 21.097656 71.820312 L 19.046875 72.585938 L 17.347656 72.535156 Z M 15.789062 56.472656 "/>
<path style=" stroke:none;fill-rule:nonzero;fill:#FFFFFF;fill-opacity:1;" d="M 9.261719 54.714844 L 9.746094 53.953125 L 9.636719 50.863281 L 8.164062 46.355469 L 7.53125 44.820312 L 6.972656 42.203125 L 7.039062 40.453125 L 6.679688 38.660156 L 6.359375 38.011719 L 6.527344 37.257812 L 7.867188 37.949219 L 8.578125 37.792969 L 10.023438 37.667969 L 10.769531 37.476562 L 12.179688 37.671875 L 12.71875 37.375 L 13.21875 37.359375 L 13.683594 37.695312 L 14.011719 38.527344 L 14.511719 38.40625 L 15.011719 38.636719 L 17.4375 37.207031 L 18.113281 37.121094 L 18.371094 37.351562 L 18.976562 37.371094 L 18.976562 72.609375 L 17.296875 72.605469 L 16.875 72.695312 L 15.996094 72.511719 L 13.328125 72.613281 L 12.34375 73.707031 L 12.09375 75.007812 L 8.867188 77.546875 L 8.335938 77.367188 L 8.085938 76.65625 L 6.261719 76.191406 L 5.34375 76.472656 L 4.953125 76.996094 L 4.167969 76.914062 L 4.476562 74.433594 L 5.242188 73.8125 L 5.398438 72.804688 L 6.035156 69.492188 L 5.289062 68.226562 L 4.75 68.167969 L 4.109375 66.972656 L 3.433594 67.054688 L 2.476562 66.355469 L 1.519531 66.117188 L 1.335938 65.242188 L 1.078125 65.039062 L 2.363281 63.101562 L 3.015625 62.476562 L 3.773438 61.210938 L 5.164062 60.40625 L 7.777344 59.746094 L 9.480469 58.339844 L 9.503906 56.230469 Z M 9.261719 54.714844 "/>
<path style="fill:none;stroke-width:10;stroke-linecap:butt;stroke-linejoin:round;stroke:#FFFFFF;stroke-opacity:1;stroke-miterlimit:4;" d="M 1047.743056 25.640074 L 1086.568813 63.943842 L 1096.275253 49.638557 L 1127.525253 46.746232 L 1147.017045 49.87307 L 1148.989899 59.800781 L 1157.670455 69.181296 L 1159.722222 85.05 L 1169.349747 97.401011 L 1184.816919 99.667969 L 1185.842803 89.896599 L 1221.748737 69.103125 L 1244.160354 72.229963 L 1262.784091 84.190119 L 1299.479167 99.277114 L 1301.136364 112.253493 L 1293.402778 114.285938 L 1291.903409 129.529274 L 1284.958965 151.104458 L 1285.984848 156.498254 L 1314.078283 185.65602 L 1332.386364 164.628033 L 1357.796717 150.010064 L 1373.974116 153.840441 L 1373.421717 139.222472 L 1392.834596 127.340487 L 1408.53851 126.246094 L 1433.317551 135.470267 L 1448.469066 121.399494 L 1462.27904 131.874403 L 1499.289773 141.802114 L 1500.078914 155.560202 L 1522.964015 166.973162 L 1522.569444 177.682583 L 1531.328914 188.392004 L 1545.849116 187.219439 L 1551.530934 209.34182 L 1560.369318 209.732675 L 1571.022727 199.804963 L 1579.07197 200.195818 L 1587.042298 208.950965 L 1586.253157 236.779825 L 1583.64899 241.391912 L 1587.831439 245.613143 L 1582.070707 256.244393 L 1582.859848 260.07477 L 1592.40846 270.784191 L 1590.119949 278.757629 L 1579.07197 285.245818 L 1567.945076 300.176471 L 1567.629419 314.638097 L 1579.07197 323.080561 L 1584.359217 324.174954 L 1587.436869 340.98171 L 1606.534091 361.227987 L 1603.456439 371.546553 L 1611.821338 400.547978 L 1595.801768 399.766268 L 1597.380051 411.960938 L 1592.013889 425.719026 L 1579.07197 431.034651 L 1575.994318 435.646737 L 1575.994318 451.671783 L 1568.339646 463.866452 L 1566.840278 482.158456 L 1595.801768 494.431296 L 1614.109848 509.674632 L 1613.399621 524.136259 L 1626.578283 528.982858 L 1648.516414 530.233594 L 1647.727273 541.724724 L 1640.072601 551.652436 L 1631.707702 576.041774 L 1638.888889 585.344118 L 1651.357323 587.14205 L 1664.299242 600.118428 L 1664.299242 614.111029 L 1679.450758 627.087408 L 1682.686237 663.749586 L 1703.125 675.631572 L 1729.087753 696.659559 L 1743.923611 696.659559 L 1756.076389 706.58727 L 1770.596591 706.58727 L 1775.647096 721.205239 L 1787.405303 720.267187 L 1791.114268 740.747978 L 1789.693813 757.711075 L 1785.82702 782.882123 L 1776.67298 803.519256 L 1781.486742 806.802436 L 1789.299242 805.786213 L 1800.347222 813.056112 L 1840.435606 797.265579 L 1849.352904 798.750827 L 1864.504419 810.320129 L 1892.045455 817.042831 L 1898.516414 827.283226 L 1919.034091 826.736029 L 1927.635732 840.806801 L 1911.695076 852.610616 L 1913.352273 878.250689 L 1930.082071 888.96011 L 1942.313763 893.572197 L 1947.679924 901.936489 L 1959.911616 898.887822 L 1965.988005 911.082491 L 1978.219697 908.033824 L 1976.641414 944.696002 L 1981.218434 953.842004 L 1954.545455 956.108961 L 1953.914141 965.176792 L 1926.294192 965.254963 L 1926.294192 975.182675 L 1932.370581 981.280009 L 1917.140152 1010.281434 L 1904.90846 1009.577895 L 1896.543561 1027.869899 L 1883.522727 1027.869899 L 1878.23548 1038.57932 L 1871.369949 1037.79761 L 1864.504419 1047.725322 L 1853.061869 1044.676654 L 1837.752525 1039.282858 L 1822.522096 1046.943612 L 1811.079545 1039.282858 L 1808.001894 1037.015901 L 1794.270833 1036.234191 L 1790.482955 1013.330101 L 1772.09596 1012.626562 L 1757.654672 1005.747518 L 1747.71149 1014.89352 L 1714.094066 1012.626562 L 1708.017677 1040.064568 L 1711.095328 1051.555699 L 1698.074495 1056.089614 L 1698.074495 1067.580744 L 1688.920455 1075.945037 L 1710.306187 1092.751792 L 1712.594697 1108.776838 L 1712.594697 1113.310754 L 1727.114899 1126.287132 L 1749.210859 1130.899219 L 1748.500631 1140.045221 L 1749.210859 1144.657307 L 1759.15404 1156.070267 L 1757.654672 1177.489108 L 1743.13447 1186.63511 L 1745.42298 1192.732445 L 1753.787879 1204.145404 L 1760.653409 1220.95216 L 1772.885101 1230.879871 L 1762.231692 1233.146829 L 1761.442551 1242.292831 L 1759.943182 1249.171875 L 1769.097222 1256.832629 L 1768.308081 1281.221967 L 1774.38447 1292.713097 L 1772.09596 1302.640809 L 1766.019571 1310.223392 L 1777.067551 1326.639292 L 1792.771465 1329.297105 L 1793.481692 1350.715947 L 1806.818182 1361.034513 L 1806.502525 1380.42091 L 1731.691919 1381.202619 L 1711.095328 1388.863373 L 1702.651515 1405.279274 L 1692.787247 1404.888419 L 1677.477904 1394.178998 L 1638.573232 1398.009375 L 1634.785354 1408.718796 L 1641.650884 1419.350046 L 1641.650884 1427.0108 L 1627.919823 1425.525551 L 1625.631313 1436.156801 L 1608.03346 1446.866222 L 1604.955808 1462.109559 L 1596.590909 1462.891268 L 1579.07197 1491.110983 L 1580.571338 1502.602114 L 1572.916667 1508.699449 L 1575.205177 1522.066682 L 1572.522096 1528.554871 L 1564.551768 1530.821829 L 1561.079545 1551.068107 L 1552.714646 1564.044485 L 1554.608586 1572.017923 L 1554.214015 1580.069531 L 1564.551768 1585.776011 L 1565.340909 1602.582767 L 1572.206439 1609.38364 L 1566.051136 1618.607812 L 1574.494949 1630.020772 L 1580.571338 1644.56057 L 1577.888258 1656.364384 L 1569.128788 1664.337822 L 1566.051136 1677.3142 L 1547.743056 1677.3142 L 1543.166035 1665.510386 L 1530.224116 1665.510386 L 1516.493056 1649.094485 L 1516.808712 1628.848208 L 1498.895202 1620.093061 L 1486.66351 1603.286305 L 1474.510732 1601.410202 L 1439.393939 1605.631434 L 1430.63447 1615.16829 L 1422.190657 1610.165349 L 1413.036616 1620.093061 L 1388.967803 1619.311351 L 1382.102273 1602.582767 L 1362.294823 1607.898392 L 1356.218434 1619.702206 L 1343.197601 1619.311351 L 1334.832702 1639.948483 L 1320.3125 1637.681526 L 1306.581439 1646.045818 L 1298.21654 1639.166774 L 1294.349747 1626.972105 L 1282.19697 1616.262684 L 1285.590278 1593.358594 L 1274.542298 1578.896967 L 1269.965278 1565.920588 L 1253.945707 1557.556296 L 1240.214646 1564.357169 L 1231.770833 1581.163925 L 1209.674874 1580.382215 L 1197.443182 1588.042969 L 1183.712121 1610.947059 L 1184.501263 1629.239063 L 1178.34596 1636.118107 L 1171.480429 1622.360018 L 1163.904672 1623.923438 L 1156.25 1605.631434 L 1153.96149 1582.727344 L 1137.941919 1583.430882 L 1128.787879 1578.896967 L 1116.556187 1581.945634 L 1097.064394 1595.312868 L 1094.381313 1577.333548 L 1076.862374 1564.357169 L 1073.784722 1552.1625 L 1059.343434 1561.308502 L 1047.82197 1581.163925 L 1014.28346 1582.727344 L 994.47601 1565.138879 L 982.244318 1578.115257 L 981.455177 1598.75239 L 969.223485 1617.044393 L 954.782197 1604.849724 L 964.646465 1578.115257 L 957.070707 1572.017923 L 915.088384 1562.090211 L 905.145202 1572.017923 L 872.316919 1571.236213 L 875.394571 1549.895542 L 857.796717 1550.677252 L 854.008838 1546.846875 L 855.508207 1517.063741 L 820.391414 1512.529825 L 801.373106 1521.675827 L 734.927399 1494.159651 L 697.522096 1494.94136 L 696.022727 1479.698024 L 641.098485 1478.916314 L 624.289773 1459.842601 L 592.250631 1459.842601 L 560.921717 1449.13318 L 547.979798 1452.572702 L 466.698232 1447.647932 L 447.995581 1435.375092 L 439.236111 1437.720221 L 428.503788 1436.938511 L 386.916035 1452.181847 L 352.588384 1452.572702 L 340.356692 1455.230515 L 324.337121 1449.91489 L 270.20202 1452.963557 L 250.315657 1475.867647 L 244.949495 1501.820404 L 177.083333 1549.895542 L 169.428662 1548.332123 L 164.457071 1534.652206 L 149.621212 1530.040119 L 125.94697 1526.209743 L 108.349116 1529.25841 L 99.984217 1538.404412 L 106.849747 1564.357169 L 103.772096 1567.405836 L 87.042298 1556.774586 L 85.464015 1524.724494 L 91.619318 1509.402987 L 90.041035 1488.844026 L 107.638889 1477.352895 L 106.849747 1466.721645 L 102.272727 1460.624311 L 108.349116 1439.205469 L 109.138258 1429.277757 L 120.580808 1408.718796 L 118.292298 1386.596415 L 106.849747 1364.395864 L 94.618056 1365.177574 L 82.386364 1341.569945 L 70.233586 1343.055193 L 59.501263 1333.909191 L 48.847854 1327.811857 L 30.539773 1324.763189 L 27.462121 1317.102436 L 29.040404 1306.393015 L 21.385732 1303.344347 L 48.058712 1262.929963 L 61.079545 1250.735294 L 77.099116 1225.564246 L 103.061869 1208.757491 L 134.311869 1196.562822 L 154.90846 1195.781112 L 192.313763 1166.779687 L 191.682449 1106.588051 L 187.815657 1094.393382 L 195.391414 1081.495175 L 195.391414 1066.330009 L 193.102904 1058.434743 L 184.974747 1044.363971 L 195.3125 1019.114752 L 188.84154 1006.998254 L 184.580177 1001.604458 L 183.633207 990.738695 L 175.899621 981.123667 L 171.638258 951.965901 L 166.193182 933.595726 L 154.356061 901.23295 L 150.015783 878.563373 L 141.414141 840.806801 L 142.518939 811.101838 L 136.521465 801.174127 L 135.969066 774.986857 L 128.472222 762.010478 L 129.498106 745.82909 L 147.885101 752.317279 L 158.380682 760.837914 L 165.167298 759.821691 L 174.873737 755.522289 L 182.054924 755.834972 L 189.393939 754.115211 L 203.993056 754.427895 L 217.487374 749.11227 L 245.028409 754.427895 L 260.10101 746.923483 L 273.042929 749.034099 L 281.486742 761.697794 L 284.48548 771.234651 L 293.797348 768.498667 L 304.371843 773.892463 L 338.936237 751.222886 L 348.090278 746.923483 L 354.79798 743.014936 L 368.686869 742.467739 L 372.71149 749.581296 L 392.676768 747.861535 L 396.070076 732.852711 L 397.174874 724.253906 L 390.940657 706.665441 L 397.174874 700.489936 L 400.72601 692.985524 L 421.638258 690.562224 L 438.920455 701.037132 L 469.065657 679.305607 L 474.905303 657.339568 L 484.611742 659.450184 L 509.469697 660.544577 L 522.411616 644.363189 L 532.670455 649.28796 L 536.537247 660.388235 L 544.191919 666.876425 L 535.748106 674.537178 L 537.247475 680.634513 L 531.960227 687.513557 L 540.325126 701.193474 L 563.210227 702.756893 L 571.65404 695.09614 L 586.095328 696.659559 L 585.385101 674.537178 L 591.46149 664.609467 L 582.307449 652.414798 L 575.441919 650.851379 L 573.153409 636.311581 L 553.34596 643.972335 L 542.613636 641.705377 L 543.797348 623.726057 L 560.21149 605.043199 L 559.422348 577.605193 L 569.36553 567.677482 L 583.806818 562.283686 L 587.673611 537.112638 L 580.018939 523.432721 L 583.096591 507.407675 L 580.808081 497.479963 L 582.307449 481.454917 L 593.75 474.575873 L 596.03851 453.157031 L 607.481061 444.011029 L 613.636364 438.695404 L 616.635101 430.252941 L 652.541035 427.985983 L 670.059975 417.276563 L 684.974747 392.887224 L 687.657828 373.813511 L 698.311237 363.8858 L 720.09154 371.937408 L 731.928662 363.8858 L 747.159091 370.764844 L 753.23548 376.080469 L 760.890152 369.983134 L 763.178662 348.642463 L 771.622475 337.933042 L 789.930556 330.272289 L 796.006944 323.471415 L 788.352273 310.495037 L 775.410354 309.713327 L 761.679293 304.397702 L 746.369949 308.149908 L 729.640152 301.270864 L 728.85101 295.173529 L 737.215909 282.97886 L 738.005051 268.517233 L 748.342803 257.807813 L 745.659722 247.098392 L 748.65846 234.122013 L 761.679293 217.393428 L 760.890152 183.779917 L 770.833333 177.682583 L 785.353535 186.046875 L 810.527146 172.366958 L 816.603535 156.263741 L 834.911616 135.704779 L 852.430556 135.626608 L 861.742424 131.952574 L 888.33649 152.511535 L 900.883838 140.004182 L 911.221591 149.462868 L 948.626894 152.511535 L 955.176768 137.268199 L 958.570076 104.436397 L 985.243056 85.362684 L 985.400884 71.760937 L 1007.102273 57.455653 L 1013.257576 39.945358 L 1032.433712 39.085478 Z M 1047.743056 25.640074 " transform="matrix(0.0495,0,0,0.0499706,0,0)"/>
</g>
</svg>
