<svg width="80" height="70" viewBox="0 0 80 70" fill="none" xmlns="http://www.w3.org/2000/svg">
<path d="M19.661 29.2655L19.0395 27.1186L17.0056 27.6836L15.6497 29.2655L14.5198 28.9266L13.1638 29.774L13.6158 31.1864L9.37853 32.7119L2.59887 32.2599L5.9322 42.7684V49.4915L1.35593 52.2034L0 55.9887L3.05085 57.7401L3.67232 59.7175L3.05085 65.3107L6.61017 64.2373L9.26554 60.8475L16.3842 59.7175L33.1073 62.6554L37.3446 65.8192L45.8192 66.7232L49.3785 63.8418L51.3559 67.4011L58.4746 65.8192L59.3785 67.9096L61.6384 69.0396L62.2599 67.9096L60.9605 63.8418L64.8588 58.0226L71.5254 57.1186L70.1695 48.5876L66.8362 45.1412L68.7571 42.5424L74.9153 44.4633L80 39.774L77.2881 35.2542L71.5254 34.4068L72.4294 30.1695L68.3616 28.3616L62.8249 20.0565L65.3107 16.6667L64.4068 8.64407L58.8701 4.18079L52.3164 6.72316L51.9209 2.59887L40.678 0L36.2712 5.64972L31.9209 4.91525L28.0226 10.5085L29.887 12.3729L22.3164 18.0226L21.1299 19.774L21.4124 23.2768L20.7345 23.6723L19.661 26.5537L20.7345 26.7797L21.8644 29.2655H19.661Z" fill="white"/>
</svg>
